<svg id="visual" viewBox="0 0 1440 900" width="1440" height="900" xmlns="http://www.w3.org/2000/svg" xmlns:xlink="http://www.w3.org/1999/xlink" version="1.1"><path d="M0 298L26.7 310C53.3 322 106.7 346 160 362.5C213.3 379 266.7 388 320 367C373.3 346 426.7 295 480 265C533.3 235 586.7 226 640 254.5C693.3 283 746.7 349 800 410.5C853.3 472 906.7 529 960 527.5C1013.3 526 1066.7 466 1120 395.5C1173.3 325 1226.7 244 1280 197.5C1333.3 151 1386.7 139 1413.3 133L1440 127L1440 0L1413.3 0C1386.7 0 1333.3 0 1280 0C1226.7 0 1173.3 0 1120 0C1066.7 0 1013.3 0 960 0C906.7 0 853.3 0 800 0C746.7 0 693.3 0 640 0C586.7 0 533.3 0 480 0C426.7 0 373.3 0 320 0C266.7 0 213.3 0 160 0C106.7 0 53.3 0 26.7 0L0 0Z" fill="#ffd369"></path><path d="M0 559L26.7 590.5C53.3 622 106.7 685 160 712C213.3 739 266.7 730 320 719.5C373.3 709 426.7 697 480 682C533.3 667 586.7 649 640 623.5C693.3 598 746.7 565 800 577C853.3 589 906.7 646 960 677.5C1013.3 709 1066.7 715 1120 698.5C1173.3 682 1226.7 643 1280 631C1333.3 619 1386.7 634 1413.3 641.5L1440 649L1440 125L1413.3 131C1386.7 137 1333.3 149 1280 195.5C1226.7 242 1173.3 323 1120 393.5C1066.7 464 1013.3 524 960 525.5C906.7 527 853.3 470 800 408.5C746.7 347 693.3 281 640 252.5C586.7 224 533.3 233 480 263C426.7 293 373.3 344 320 365C266.7 386 213.3 377 160 360.5C106.7 344 53.3 320 26.7 308L0 296Z" fill="#ffe9b5"></path><path d="M0 901L26.7 901C53.3 901 106.7 901 160 901C213.3 901 266.7 901 320 901C373.3 901 426.7 901 480 901C533.3 901 586.7 901 640 901C693.3 901 746.7 901 800 901C853.3 901 906.7 901 960 901C1013.3 901 1066.7 901 1120 901C1173.3 901 1226.7 901 1280 901C1333.3 901 1386.7 901 1413.3 901L1440 901L1440 647L1413.3 639.5C1386.7 632 1333.3 617 1280 629C1226.7 641 1173.3 680 1120 696.5C1066.7 713 1013.3 707 960 675.5C906.7 644 853.3 587 800 575C746.7 563 693.3 596 640 621.5C586.7 647 533.3 665 480 680C426.7 695 373.3 707 320 717.5C266.7 728 213.3 737 160 710C106.7 683 53.3 620 26.7 588.5L0 557Z" fill="#ffffff"></path></svg>