<svg id="visual" viewBox="0 0 1440 300" width="1440" height="300" xmlns="http://www.w3.org/2000/svg" xmlns:xlink="http://www.w3.org/1999/xlink" version="1.1"><rect x="0" y="0" width="1440" height="300" fill="#fff"></rect><path d="M0 69L40 97.5C80 126 160 183 240 180.3C320 177.7 400 115.3 480 114.2C560 113 640 173 720 187.7C800 202.3 880 171.7 960 180.8C1040 190 1120 239 1200 222.3C1280 205.7 1360 123.3 1400 82.2L1440 41L1440 301L1400 301C1360 301 1280 301 1200 301C1120 301 1040 301 960 301C880 301 800 301 720 301C640 301 560 301 480 301C400 301 320 301 240 301C160 301 80 301 40 301L0 301Z" fill="#FFD369" stroke-linecap="round" stroke-linejoin="miter"></path></svg>