<svg id="visual" viewBox="0 0 960 540" width="960" height="540" xmlns="http://www.w3.org/2000/svg" xmlns:xlink="http://www.w3.org/1999/xlink" version="1.1"><path d="M0 189L17.8 176.3C35.7 163.7 71.3 138.3 106.8 125.3C142.3 112.3 177.7 111.7 213.2 135.7C248.7 159.7 284.3 208.3 320 249C355.7 289.7 391.3 322.3 426.8 312.8C462.3 303.3 497.7 251.7 533.2 240.2C568.7 228.7 604.3 257.3 640 281C675.7 304.7 711.3 323.3 746.8 320.2C782.3 317 817.7 292 853.2 276.8C888.7 261.7 924.3 256.3 942.2 253.7L960 251L960 0L942.2 0C924.3 0 888.7 0 853.2 0C817.7 0 782.3 0 746.8 0C711.3 0 675.7 0 640 0C604.3 0 568.7 0 533.2 0C497.7 0 462.3 0 426.8 0C391.3 0 355.7 0 320 0C284.3 0 248.7 0 213.2 0C177.7 0 142.3 0 106.8 0C71.3 0 35.7 0 17.8 0L0 0Z" fill="#FFD369" stroke-linecap="round" stroke-linejoin="miter"></path></svg>