<svg id="visual" viewBox="0 0 1440 900" width="1440" height="900" xmlns="http://www.w3.org/2000/svg" xmlns:xlink="http://www.w3.org/1999/xlink" version="1.1"><rect x="0" y="0" width="1440" height="900" fill="#fff"></rect><g fill="#FFD369"><circle r="27" cx="558" cy="586"></circle><circle r="6" cx="977" cy="127"></circle><circle r="10" cx="765" cy="87"></circle><circle r="24" cx="269" cy="431"></circle><circle r="8" cx="447" cy="737"></circle><circle r="23" cx="1394" cy="682"></circle><circle r="6" cx="897" cy="626"></circle><circle r="15" cx="429" cy="94"></circle><circle r="15" cx="177" cy="633"></circle><circle r="8" cx="975" cy="472"></circle><circle r="5" cx="564" cy="120"></circle><circle r="25" cx="231" cy="112"></circle><circle r="14" cx="179" cy="188"></circle><circle r="7" cx="1381" cy="427"></circle><circle r="19" cx="639" cy="125"></circle><circle r="15" cx="1375" cy="766"></circle><circle r="18" cx="788" cy="821"></circle><circle r="21" cx="166" cy="564"></circle><circle r="6" cx="498" cy="532"></circle><circle r="19" cx="1185" cy="854"></circle><circle r="13" cx="693" cy="68"></circle><circle r="20" cx="345" cy="255"></circle><circle r="14" cx="1202" cy="353"></circle><circle r="11" cx="918" cy="86"></circle><circle r="10" cx="274" cy="230"></circle><circle r="13" cx="676" cy="311"></circle><circle r="15" cx="504" cy="245"></circle><circle r="22" cx="1107" cy="397"></circle><circle r="17" cx="1076" cy="188"></circle></g></svg>