<svg id="visual" viewBox="0 0 1440 300" width="1440" height="300" xmlns="http://www.w3.org/2000/svg" xmlns:xlink="http://www.w3.org/1999/xlink" version="1.1"><rect x="0" y="0" width="1440" height="300" fill="#fff"></rect><path d="M0 30L40 71.7C80 113.3 160 196.7 240 235.8C320 275 400 270 480 225.2C560 180.3 640 95.7 720 57.3C800 19 880 27 960 58.3C1040 89.7 1120 144.3 1200 175.7C1280 207 1360 215 1400 219L1440 223L1440 301L1400 301C1360 301 1280 301 1200 301C1120 301 1040 301 960 301C880 301 800 301 720 301C640 301 560 301 480 301C400 301 320 301 240 301C160 301 80 301 40 301L0 301Z" fill="#FFD369" stroke-linecap="round" stroke-linejoin="miter"></path></svg>