<svg id="visual" viewBox="0 0 1440 600" width="1440" height="600" xmlns="http://www.w3.org/2000/svg" xmlns:xlink="http://www.w3.org/1999/xlink" version="1.1"><rect x="0" y="0" width="1440" height="600" fill="#fff"></rect><path d="M0 281L24 269.7C48 258.3 96 235.7 144 219.3C192 203 240 193 288 255C336 317 384 451 432 514C480 577 528 569 576 509.5C624 450 672 339 720 319C768 299 816 370 864 363C912 356 960 271 1008 249.5C1056 228 1104 270 1152 318C1200 366 1248 420 1296 440.3C1344 460.7 1392 447.3 1416 440.7L1440 434L1440 601L1416 601C1392 601 1344 601 1296 601C1248 601 1200 601 1152 601C1104 601 1056 601 1008 601C960 601 912 601 864 601C816 601 768 601 720 601C672 601 624 601 576 601C528 601 480 601 432 601C384 601 336 601 288 601C240 601 192 601 144 601C96 601 48 601 24 601L0 601Z" fill="#FFD369" stroke-linecap="round" stroke-linejoin="miter"></path></svg>