<svg id="visual" viewBox="0 0 1440 600" width="1440" height="600" xmlns="http://www.w3.org/2000/svg" xmlns:xlink="http://www.w3.org/1999/xlink" version="1.1"><rect x="0" y="0" width="1440" height="600" fill="#fff"></rect><path d="M0 463L24 458.2C48 453.3 96 443.7 144 436.7C192 429.7 240 425.3 288 451.8C336 478.3 384 535.7 432 562.7C480 589.7 528 586.3 576 560.8C624 535.3 672 487.7 720 479C768 470.3 816 500.7 864 497.7C912 494.7 960 458.3 1008 449.2C1056 440 1104 458 1152 478.5C1200 499 1248 522 1296 530.7C1344 539.3 1392 533.7 1416 530.8L1440 528L1440 601L1416 601C1392 601 1344 601 1296 601C1248 601 1200 601 1152 601C1104 601 1056 601 1008 601C960 601 912 601 864 601C816 601 768 601 720 601C672 601 624 601 576 601C528 601 480 601 432 601C384 601 336 601 288 601C240 601 192 601 144 601C96 601 48 601 24 601L0 601Z" fill="#FFD369" stroke-linecap="round" stroke-linejoin="miter"></path></svg>