<svg id="visual" viewBox="0 0 1440 400" width="1440" height="400" xmlns="http://www.w3.org/2000/svg" xmlns:xlink="http://www.w3.org/1999/xlink" version="1.1"><rect x="0" y="0" width="1440" height="400" fill="#fff"></rect><g transform="translate(689.8485996350738 195.28784841398192)"><path d="M129.3 -186.5C172.6 -199 216.2 -174.5 229.7 -137.2C243.2 -100 226.6 -50 210.3 -9.4C194 31.2 178 62.3 167.6 105.1C157.3 147.8 152.6 202.1 125.7 199.1C98.7 196.2 49.3 136.1 16.6 107.4C-16.2 78.7 -32.3 81.3 -55.4 82C-78.5 82.7 -108.5 81.3 -113 67.3C-117.4 53.3 -96.2 26.7 -110.9 -8.5C-125.6 -43.7 -176.3 -87.3 -174.3 -105.5C-172.3 -123.7 -117.6 -116.4 -79.8 -107.1C-42 -97.7 -21 -86.4 11 -105.4C43 -124.5 86 -174 129.3 -186.5" fill="#ffe9b5"></path></g></svg>