<svg id="visual" viewBox="0 0 1440 400" width="1440" height="400" xmlns="http://www.w3.org/2000/svg" xmlns:xlink="http://www.w3.org/1999/xlink" version="1.1"><rect x="0" y="0" width="1440" height="400" fill="#fff"></rect><g transform="translate(772.2155619872655 193.36096850654212)"><path d="M47.9 -91.8C58.2 -77.1 59.8 -56.3 62.6 -40C65.3 -23.7 69.2 -11.8 66.6 -1.5C64 8.8 54.9 17.7 49.5 29.4C44.1 41 42.3 55.6 34.6 75.7C27 95.8 13.5 121.4 -1 123.1C-15.5 124.8 -31 102.7 -45.3 86.4C-59.6 70.2 -72.7 59.8 -98.2 46.4C-123.8 33 -161.9 16.5 -170.1 -4.7C-178.4 -26 -156.7 -52 -127.6 -59.2C-98.4 -66.4 -61.7 -54.9 -39.2 -62.5C-16.7 -70.2 -8.3 -97.1 5.2 -106.2C18.8 -115.3 37.7 -106.6 47.9 -91.8" fill="#ffe9b5"></path></g></svg>