<svg id="visual" viewBox="0 0 1440 900" width="1440" height="900" xmlns="http://www.w3.org/2000/svg" xmlns:xlink="http://www.w3.org/1999/xlink" version="1.1"><path d="M0 388L26.7 382C53.3 376 106.7 364 160 365.5C213.3 367 266.7 382 320 353.5C373.3 325 426.7 253 480 247C533.3 241 586.7 301 640 349C693.3 397 746.7 433 800 419.5C853.3 406 906.7 343 960 301C1013.3 259 1066.7 238 1120 248.5C1173.3 259 1226.7 301 1280 293.5C1333.3 286 1386.7 229 1413.3 200.5L1440 172L1440 0L1413.3 0C1386.7 0 1333.3 0 1280 0C1226.7 0 1173.3 0 1120 0C1066.7 0 1013.3 0 960 0C906.7 0 853.3 0 800 0C746.7 0 693.3 0 640 0C586.7 0 533.3 0 480 0C426.7 0 373.3 0 320 0C266.7 0 213.3 0 160 0C106.7 0 53.3 0 26.7 0L0 0Z" fill="#ffd369"></path><path d="M0 748L26.7 716.5C53.3 685 106.7 622 160 578.5C213.3 535 266.7 511 320 472C373.3 433 426.7 379 480 409C533.3 439 586.7 553 640 631C693.3 709 746.7 751 800 745C853.3 739 906.7 685 960 617.5C1013.3 550 1066.7 469 1120 458.5C1173.3 448 1226.7 508 1280 514C1333.3 520 1386.7 472 1413.3 448L1440 424L1440 170L1413.3 198.5C1386.7 227 1333.3 284 1280 291.5C1226.7 299 1173.3 257 1120 246.5C1066.7 236 1013.3 257 960 299C906.7 341 853.3 404 800 417.5C746.7 431 693.3 395 640 347C586.7 299 533.3 239 480 245C426.7 251 373.3 323 320 351.5C266.7 380 213.3 365 160 363.5C106.7 362 53.3 374 26.7 380L0 386Z" fill="#ffe9b5"></path><path d="M0 901L26.7 901C53.3 901 106.7 901 160 901C213.3 901 266.7 901 320 901C373.3 901 426.7 901 480 901C533.3 901 586.7 901 640 901C693.3 901 746.7 901 800 901C853.3 901 906.7 901 960 901C1013.3 901 1066.7 901 1120 901C1173.3 901 1226.7 901 1280 901C1333.3 901 1386.7 901 1413.3 901L1440 901L1440 422L1413.3 446C1386.7 470 1333.3 518 1280 512C1226.7 506 1173.3 446 1120 456.5C1066.7 467 1013.3 548 960 615.5C906.7 683 853.3 737 800 743C746.7 749 693.3 707 640 629C586.7 551 533.3 437 480 407C426.7 377 373.3 431 320 470C266.7 509 213.3 533 160 576.5C106.7 620 53.3 683 26.7 714.5L0 746Z" fill="#ffffff"></path></svg>