<svg id="visual" viewBox="0 0 960 540" width="960" height="540" xmlns="http://www.w3.org/2000/svg" xmlns:xlink="http://www.w3.org/1999/xlink" version="1.1"><path d="M0 190L22.8 190C45.7 190 91.3 190 137 193.7C182.7 197.3 228.3 204.7 274 204.7C319.7 204.7 365.3 197.3 411.2 173C457 148.7 503 107.3 548.8 103.7C594.7 100 640.3 134 686 152C731.7 170 777.3 172 823 175.7C868.7 179.3 914.3 184.7 937.2 187.3L960 190L960 0L937.2 0C914.3 0 868.7 0 823 0C777.3 0 731.7 0 686 0C640.3 0 594.7 0 548.8 0C503 0 457 0 411.2 0C365.3 0 319.7 0 274 0C228.3 0 182.7 0 137 0C91.3 0 45.7 0 22.8 0L0 0Z" fill="#ffd369"></path><path d="M0 390L22.8 372.8C45.7 355.7 91.3 321.3 137 306C182.7 290.7 228.3 294.3 274 323.2C319.7 352 365.3 406 411.2 392.5C457 379 503 298 548.8 262.8C594.7 227.7 640.3 238.3 686 280.7C731.7 323 777.3 397 823 397C868.7 397 914.3 323 937.2 286L960 249L960 188L937.2 185.3C914.3 182.7 868.7 177.3 823 173.7C777.3 170 731.7 168 686 150C640.3 132 594.7 98 548.8 101.7C503 105.3 457 146.7 411.2 171C365.3 195.3 319.7 202.7 274 202.7C228.3 202.7 182.7 195.3 137 191.7C91.3 188 45.7 188 22.8 188L0 188Z" fill="#ffe9b5"></path><path d="M0 541L22.8 541C45.7 541 91.3 541 137 541C182.7 541 228.3 541 274 541C319.7 541 365.3 541 411.2 541C457 541 503 541 548.8 541C594.7 541 640.3 541 686 541C731.7 541 777.3 541 823 541C868.7 541 914.3 541 937.2 541L960 541L960 247L937.2 284C914.3 321 868.7 395 823 395C777.3 395 731.7 321 686 278.7C640.3 236.3 594.7 225.7 548.8 260.8C503 296 457 377 411.2 390.5C365.3 404 319.7 350 274 321.2C228.3 292.3 182.7 288.7 137 304C91.3 319.3 45.7 353.7 22.8 370.8L0 388Z" fill="#ffffff"></path></svg>